<?xml version="1.0" encoding="iso-8859-1"?>
<!-- Generator: Adobe Illustrator 19.0.0, SVG Export Plug-In . SVG Version: 6.00 Build 0)  -->
<svg version="1.1" id="Layer_1" xmlns="http://www.w3.org/2000/svg" xmlns:xlink="http://www.w3.org/1999/xlink" x="0px" y="0px"
	 viewBox="0 0 512.001 512.001" style="enable-background:new 0 0 512.001 512.001;" xml:space="preserve">
<path style="fill:#F2F2F2;" d="M97.343,364.929v99.195h317.316V299.716c53.921-0.963,97.343-44.944,97.343-99.094
	c0-54.753-44.386-99.139-99.139-99.139c-22.928,0-44.021,7.805-60.815,20.873c-10.961-42.824-49.805-74.483-96.046-74.483
	s-85.085,31.659-96.046,74.483c-16.794-13.068-37.887-20.873-60.815-20.873C44.386,101.483,0,145.869,0,200.622
	c0,54.151,43.422,98.131,97.343,99.094v34.971V364.929z"/>
<path style="fill:#E6E6E6;" d="M142.703,334.687v-34.971c-53.921-0.963-97.343-44.944-97.343-99.094
	c0-46.947,32.643-86.245,76.463-96.503c-7.287-1.711-14.876-2.636-22.685-2.636C44.386,101.483,0,145.869,0,200.622
	c0,54.151,43.422,98.131,97.343,99.094v34.971v30.242v99.195h45.361v-99.195V334.687z"/>
<rect x="97.344" y="398.906" style="fill:#F97E62;" width="317.314" height="65.223"/>
<rect x="97.344" y="398.906" style="fill:#E86B56;" width="45.361" height="65.223"/>
<g>
</g>
<g>
</g>
<g>
</g>
<g>
</g>
<g>
</g>
<g>
</g>
<g>
</g>
<g>
</g>
<g>
</g>
<g>
</g>
<g>
</g>
<g>
</g>
<g>
</g>
<g>
</g>
<g>
</g>
</svg>
