<?xml version="1.0" encoding="iso-8859-1"?>
<!-- Generator: Adobe Illustrator 19.0.0, SVG Export Plug-In . SVG Version: 6.00 Build 0)  -->
<svg version="1.1" id="Layer_1" xmlns="http://www.w3.org/2000/svg" xmlns:xlink="http://www.w3.org/1999/xlink" x="0px" y="0px"
	 viewBox="0 0 512 512" style="enable-background:new 0 0 512 512;" xml:space="preserve">
<g>
	<polygon style="fill:#BD9F79;" points="394.398,438.857 388.22,512 123.78,512 117.602,438.857 256,405.099 	"/>
	<polygon style="fill:#BD9F79;" points="421.978,112.527 415.8,185.67 256,219.429 96.2,185.67 90.022,112.527 	"/>
</g>
<path style="fill:#F9EBDB;" d="M415.8,185.67l-21.403,253.187H117.602L96.2,185.67H415.8z"/>
<polygon style="fill:#FF9A52;" points="341.543,247.56 341.543,331.956 257.148,331.956 257.148,247.56 299.346,230.681 "/>
<path style="fill:#F9EBDB;" d="M299.346,230.681l-42.198,16.879v84.396h84.396V247.56L299.346,230.681z"/>
<rect x="290.906" y="112.527" style="fill:#D2BA9C;" width="16.879" height="140.659"/>
<polygon style="fill:#EF5352;" points="341.545,331.956 257.149,331.956 257.149,247.56 299.347,230.681 341.545,247.56 "/>
<polygon style="fill:#E8D6BD;" points="388.22,0 405.099,67.516 256,101.275 106.901,67.516 123.78,0 "/>
<rect x="73.143" y="67.516" style="fill:#F9EBDB;" width="365.714" height="45.011"/>
<g>
</g>
<g>
</g>
<g>
</g>
<g>
</g>
<g>
</g>
<g>
</g>
<g>
</g>
<g>
</g>
<g>
</g>
<g>
</g>
<g>
</g>
<g>
</g>
<g>
</g>
<g>
</g>
<g>
</g>
</svg>
