<?xml version="1.0" encoding="iso-8859-1"?>
<!-- Generator: Adobe Illustrator 19.0.0, SVG Export Plug-In . SVG Version: 6.00 Build 0)  -->
<svg version="1.1" id="Layer_1" xmlns="http://www.w3.org/2000/svg" xmlns:xlink="http://www.w3.org/1999/xlink" x="0px" y="0px"
	 viewBox="0 0 512 512" style="enable-background:new 0 0 512 512;" xml:space="preserve">
<g>
	<path style="fill:#CCCCCC;" d="M14.335,497.73c9.43,9.431,22.48,14.623,35.815,14.251c13.331-0.372,26.073-6.291,34.96-16.233
		l107.274-120.001c6.292-7.038,6.081-17.854-0.594-24.53l-30.943-30.943c-3.465-3.465-8.11-5.121-12.675-5.121
		c-4.23,0-8.515,1.547-11.9,4.572L16.34,426.932c-9.943,8.886-15.871,21.64-16.244,34.971S4.905,488.3,14.335,497.73z"/>
	<path style="fill:#CCCCCC;" d="M14.63,497.435c9.43,9.431,22.333,14.77,35.667,14.398c13.331-0.372,26-6.217,34.887-16.16
		L192.421,375.71c6.292-7.038,6.044-17.817-0.631-24.493l-15.408-15.408L14.63,497.435z"/>
	<path style="fill:#CCCCCC;" d="M497.612,14.332c-9.431-9.43-22.48-14.623-35.815-14.251c-13.331,0.372-26.073,6.291-34.96,16.234
		L319.982,135.895c-6.292,7.038-5.661,17.435,1.014,24.11l30.943,30.943c3.465,3.465,7.69,5.541,12.255,5.541
		c4.23,0,8.305-1.337,11.69-4.363L495.712,85.025c9.943-8.886,15.818-21.588,16.192-34.919
		C512.277,36.775,507.043,23.762,497.612,14.332z"/>
	<path style="fill:#CCCCCC;" d="M497.738,14.207c-9.431-9.43-22.543-14.56-35.877-14.188c-13.331,0.372-26.104,6.321-34.991,16.264
		L319.999,135.881c-6.292,7.038-5.677,17.451,0.998,24.125l15.408,15.408L497.738,14.207z"/>
</g>
<path style="fill:#E1E1E1;" d="M433.646,135.096L376.85,78.299c-9.299-9.299-21.866-14.217-35.016-14.217
	c-13.15,0-25.617,5.223-34.914,14.522L78.494,307.027c-19.196,19.197-19.449,50.684-0.254,69.881l56.797,56.797
	c9.299,9.299,21.866,14.217,35.016,14.217s25.617-5.223,34.914-14.522l228.424-228.423
	C452.588,185.779,452.842,154.291,433.646,135.096z"/>
<path style="fill:#F5F4F5;" d="M405.211,106.659l-28.36-28.36c-9.299-9.299-21.866-14.217-35.016-14.217
	c-13.15,0-25.617,5.223-34.914,14.522L78.494,307.027c-19.196,19.197-19.449,50.684-0.254,69.881l28.398,28.398L405.211,106.659z"/>
<g>
</g>
<g>
</g>
<g>
</g>
<g>
</g>
<g>
</g>
<g>
</g>
<g>
</g>
<g>
</g>
<g>
</g>
<g>
</g>
<g>
</g>
<g>
</g>
<g>
</g>
<g>
</g>
<g>
</g>
</svg>
