<?xml version="1.0" encoding="iso-8859-1"?>
<!-- Generator: Adobe Illustrator 19.0.0, SVG Export Plug-In . SVG Version: 6.00 Build 0)  -->
<svg version="1.1" id="Capa_1" xmlns="http://www.w3.org/2000/svg" xmlns:xlink="http://www.w3.org/1999/xlink" x="0px" y="0px"
	 viewBox="0 0 410 410" style="enable-background:new 0 0 410 410;" xml:space="preserve">
<g id="XMLID_1977_">
	<polygon id="XMLID_1978_" style="fill:#AED5F3;" points="204.5,40 165,40 165,50 130,120 130,180 204.5,180 	"/>
	<path id="XMLID_1979_" style="fill:#AED5F3;" d="M204.5,320H130v65c0,13.807,11.193,25,25,25s25-11.193,25-25
		c0,13.807,11.193,25,25,25c-0.168,0-0.333-0.01-0.5-0.013V320z"/>
	<path id="XMLID_1980_" style="fill:#78B9EB;" d="M204.5,409.987c0.167,0.003,0.332,0.013,0.5,0.013c13.807,0,25-11.193,25-25
		c0,13.807,11.193,25,25,25c13.807,0,25-11.193,25-25v-65h-75.5V409.987z"/>
	<polygon id="XMLID_1981_" style="fill:#78B9EB;" points="245,50 245,40 204.5,40 204.5,180 280,180 280,120 	"/>
	<path id="XMLID_1982_" style="fill:#446884;" d="M130,180v140h74.5H280V180h-75.5H130z M231.666,263.334
		c0,14.726-11.938,26.666-26.665,26.666c-14.728,0-26.667-11.94-26.667-26.666c0-26.666,26.667-53.334,26.667-53.334
		S231.666,236.668,231.666,263.334z"/>
	<polygon id="XMLID_1985_" style="fill:#446884;" points="245,40 245,0 165,0 165,40 204.5,40 	"/>
	<path id="XMLID_1986_" style="fill:#FFFFFF;" d="M178.333,263.334c0,14.726,11.939,26.666,26.667,26.666
		c14.728,0,26.665-11.94,26.665-26.666c0-26.666-26.665-53.334-26.665-53.334S178.333,236.668,178.333,263.334z"/>
</g>
<g>
</g>
<g>
</g>
<g>
</g>
<g>
</g>
<g>
</g>
<g>
</g>
<g>
</g>
<g>
</g>
<g>
</g>
<g>
</g>
<g>
</g>
<g>
</g>
<g>
</g>
<g>
</g>
<g>
</g>
</svg>
