<?xml version="1.0" encoding="iso-8859-1"?>
<!-- Generator: Adobe Illustrator 19.0.0, SVG Export Plug-In . SVG Version: 6.00 Build 0)  -->
<svg version="1.1" id="Layer_1" xmlns="http://www.w3.org/2000/svg" xmlns:xlink="http://www.w3.org/1999/xlink" x="0px" y="0px"
	 viewBox="0 0 512.001 512.001" style="enable-background:new 0 0 512.001 512.001;" xml:space="preserve">
<path style="fill:#D33D3D;" d="M374.11,123.686c-75.966,0-137.546-27.689-137.546-61.843v82.458V270.52v223.488h41.339
	c-0.058,0.089-0.107,0.183-0.163,0.271c24.818,10.959,58.834,17.723,96.37,17.723c75.966,0,137.546-27.689,137.546-61.842v-82.458
	v-223.4V61.843C511.657,95.997,450.076,123.686,374.11,123.686z"/>
<path style="fill:#E95353;" d="M374.11,174.927c-75.966,0-137.546-22.513-137.546-50.282v75.053v70.823h9.746
	c20.722,0,37.522,16.797,37.522,37.519v23.695v55.044v59.724c24.158,7.69,55.73,12.347,90.279,12.347
	c75.966,0,137.546-22.513,137.546-50.282v-82.185V199.697v-75.053C511.657,152.414,450.076,174.927,374.11,174.927z"/>
<path style="fill:#7F6A6A;" d="M246.311,360.362H37.862c-20.723,0-37.519-16.799-37.519-37.52V450.1v11.847v11.847
	c0,20.723,16.797,37.522,37.519,37.522h208.448c20.722,0,37.522-16.799,37.522-37.52v-11.847v-11.847V322.842
	C283.832,343.563,267.031,360.362,246.311,360.362z"/>
<path style="fill:#8C5549;" d="M246.311,405.527H37.862c-20.723,0-37.519-8.396-37.519-18.749v59.146v5.919v5.918
	c0,10.353,16.797,18.749,37.519,18.749h208.448c20.722,0,37.522-8.396,37.522-18.749v-5.918v-5.919v-59.146
	C283.832,397.131,267.031,405.527,246.311,405.527z"/>
<ellipse style="fill:#DCE0E2;" cx="374.115" cy="61.843" rx="137.544" ry="61.843"/>
<path style="opacity:0.15;fill:#202020;enable-background:new    ;" d="M255.461,61.843c0-32.724,56.54-59.51,128.098-61.694
	c-3.121-0.094-6.271-0.148-9.448-0.148c-75.966,0-137.546,27.689-137.546,61.842c0,34.155,61.58,61.843,137.546,61.843
	c3.176,0,6.326-0.053,9.448-0.148C312.001,121.355,255.461,94.569,255.461,61.843z"/>
<ellipse transform="matrix(-0.7071 -0.7071 0.7071 -0.7071 375.63 669.3743)" style="fill:#E8A854;" cx="326.447" cy="256.892" rx="22.665" ry="58.449"/>
<path style="fill:#F7BD63;" d="M367.787,215.563L367.787,215.563c8.854,8.854-2.479,34.53-25.303,57.357
	c-22.826,22.826-48.505,34.157-57.358,25.306l0,0c2.529,3.347,4.417,7.496,7.499,10.579c20.399,20.399,47.417,28.775,69.869,23.935
	l11.057,11.057c10.412,10.411,27.294,10.412,37.705,0l1.571-1.571c10.412-10.412,10.412-27.294,0-37.705l-11.057-11.058
	c4.84-22.452-3.537-49.47-23.935-69.868C374.752,220.512,371.135,218.092,367.787,215.563z"/>
<path style="fill:#FFF1CE;" d="M410.636,357.421l19.083,19.084l-0.979,10.556l0,0c-0.412,4.144,0.966,8.432,4.141,11.606
	c5.617,5.616,14.719,5.616,20.336,0c2.836-2.834,4.236-6.558,4.209-10.273c3.715,0.026,7.437-1.374,10.273-4.209
	c5.617-5.616,5.617-14.72,0-20.336c-2.763-2.764-6.374-4.165-9.995-4.208h-0.002c-0.984-0.011-1.967,0.074-2.938,0.263l-9.188,0.824
	l-27.023-27.023c-1.301,3.097-3.205,5.998-5.727,8.52l-1.571,1.571c-2.522,2.521-5.424,4.426-8.52,5.726"/>
<g>
	<path style="fill:#7F6A6A;" d="M352.881,69.82h-31.123c-4.605,0-8.337-3.731-8.337-8.337s3.731-8.337,8.337-8.337h31.123
		c4.605,0,8.337,3.731,8.337,8.337S357.485,69.82,352.881,69.82z"/>
	<ellipse style="fill:#7F6A6A;" cx="312.546" cy="61.481" rx="23.343" ry="12.227"/>
</g>
<g style="opacity:0.15;">
	<path style="fill:#202020;" d="M296.636,494.279c3.847-5.891,6.091-12.923,6.091-20.484v-11.847v-4.187v-5.918v-1.742v-4.177
		v-59.146v-55.044v-23.695c0-20.723-16.8-37.519-37.522-37.519h-9.746V144.301V93.138c-12.005-9.181-18.896-19.876-18.896-31.295
		v82.458V270.52h9.746c20.722,0,37.522,16.797,37.522,37.519v23.695v55.044v59.146v4.177v1.742v5.918v4.187v11.847
		c0,7.561-2.245,14.592-6.091,20.484c24.818,10.959,58.835,17.723,96.37,17.723c3.25,0,6.471-0.055,9.665-0.155
		C349.916,510.836,319.402,504.331,296.636,494.279z"/>
</g>
<g style="opacity:0.15;">
	<path style="fill:#202020;" d="M19.239,473.795v-11.847v-11.847v-85.8c-11.287-6.469-18.896-18.626-18.896-32.567V450.1v11.847
		v11.847c0,20.723,16.797,37.522,37.519,37.522h18.896C36.036,511.315,19.239,494.516,19.239,473.795z"/>
</g>
<path style="fill:#DCE0E2;" d="M246.311,270.52h-33.65h-25.725H37.862c-20.723,0-37.519,16.797-37.519,37.519v23.695
	c0,20.722,16.797,37.52,37.519,37.52h208.448c20.722,0,37.522-16.799,37.522-37.52v-23.695
	C283.832,287.316,267.031,270.52,246.311,270.52z"/>
<path style="fill:#7F6A6A;" d="M248.598,322.697c0,7.366-5.97,13.339-13.339,13.339h-45.202c-7.366,0-13.339-5.972-13.339-13.339
	v-5.188c0-7.367,5.972-13.339,13.339-13.339h45.202c7.368,0,13.339,5.971,13.339,13.339V322.697z"/>
<path style="opacity:0.15;fill:#202020;enable-background:new    ;" d="M19.239,331.734v-23.695
	c0-20.723,16.797-37.519,37.519-37.519H37.862c-20.723,0-37.519,16.797-37.519,37.519v23.695c0,20.722,16.797,37.52,37.519,37.52
	h18.896C36.036,369.254,19.239,352.456,19.239,331.734z"/>
<g>
</g>
<g>
</g>
<g>
</g>
<g>
</g>
<g>
</g>
<g>
</g>
<g>
</g>
<g>
</g>
<g>
</g>
<g>
</g>
<g>
</g>
<g>
</g>
<g>
</g>
<g>
</g>
<g>
</g>
</svg>
