<?xml version="1.0" encoding="iso-8859-1"?>
<!-- Generator: Adobe Illustrator 18.0.0, SVG Export Plug-In . SVG Version: 6.00 Build 0)  -->
<!DOCTYPE svg PUBLIC "-//W3C//DTD SVG 1.1//EN" "http://www.w3.org/Graphics/SVG/1.1/DTD/svg11.dtd">
<svg version="1.1" id="Capa_1" xmlns="http://www.w3.org/2000/svg" xmlns:xlink="http://www.w3.org/1999/xlink" x="0px" y="0px"
	 viewBox="0 0 297.5 297.5" style="enable-background:new 0 0 297.5 297.5;" xml:space="preserve">
<g>
	<g id="XMLID_37_">
		<g>
			<path style="fill:#983823;" d="M21.17,134.46c8.67,2.12,13.59,7.14,13.59,14.29s-4.92,12.17-13.59,14.29V134.46z"/>
			<path style="fill:#983823;" d="M131.5,72.93h78.24c-2.11,3.07-4.101,6.45-5.94,10.141c-8.86,17.72-13.74,41.04-13.74,65.68
				s4.88,47.96,13.74,65.68c1.84,3.69,3.83,7.07,5.94,10.141H131.5c-25.57,0-48.6-12.74-62.65-32.19c3.49,0.87,7.13,1.34,10.88,1.34
				c5.78,0,10.46-4.68,10.46-10.46c0-5.77-4.68-10.46-10.46-10.46c-13.26,0-24.05-10.79-24.05-24.05s10.79-24.05,24.05-24.05
				c5.78,0,10.46-4.69,10.46-10.46c0-5.78-4.68-10.46-10.46-10.46c-3.75,0-7.39,0.47-10.88,1.34
				C82.9,85.67,105.93,72.93,131.5,72.93z"/>
			<path style="fill:#E1757B;" d="M243.66,72.93c15.42,0,32.68,32.431,32.68,75.82s-17.26,75.82-32.68,75.82
				c-15.431,0-32.681-32.431-32.681-75.82S228.23,72.93,243.66,72.93z M262.74,114.24c0-2.75-1.11-5.45-3.07-7.391
				c-1.94-1.949-4.64-3.069-7.39-3.069s-5.44,1.12-7.391,3.069c-1.95,1.94-3.069,4.641-3.069,7.391s1.119,5.45,3.069,7.39
				c1.94,1.95,4.641,3.07,7.391,3.07s5.449-1.12,7.39-3.07C261.63,119.69,262.74,116.99,262.74,114.24z M262.74,183.26
				c0-2.75-1.11-5.45-3.07-7.39c-1.94-1.95-4.64-3.07-7.39-3.07s-5.45,1.12-7.391,3.07c-1.95,1.939-3.069,4.64-3.069,7.39
				s1.119,5.45,3.069,7.391c1.94,1.949,4.641,3.069,7.391,3.069s5.449-1.12,7.39-3.069C261.63,188.71,262.74,186.01,262.74,183.26z
				 M245.48,148.75c0-2.75-1.1-5.45-3.06-7.39c-1.95-1.95-4.63-3.07-7.39-3.07c-2.75,0-5.45,1.12-7.4,3.07
				c-1.94,1.939-3.06,4.64-3.06,7.39s1.119,5.45,3.06,7.39c1.95,1.95,4.65,3.07,7.4,3.07c2.76,0,5.439-1.12,7.39-3.07
				C244.38,154.2,245.48,151.5,245.48,148.75z"/>
			<path d="M283.51,83.07c8.86,17.72,13.74,41.04,13.74,65.68s-4.88,47.96-13.74,65.68c-10.01,20.03-24.16,31.051-39.85,31.051
				H131.5c-43.39,0-80.2-28.711-92.42-68.141c-6.561,4.76-15.8,7.75-28.37,7.75c-5.77,0-10.46-4.68-10.46-10.46v-51.76
				c0-5.78,4.689-10.46,10.46-10.46c12.57,0,21.81,2.99,28.37,7.75C51.3,80.73,88.11,52.02,131.5,52.02h112.16
				C259.35,52.02,273.5,63.04,283.51,83.07z M276.34,148.75c0-43.39-17.26-75.82-32.68-75.82c-15.431,0-32.681,32.431-32.681,75.82
				s17.25,75.82,32.681,75.82C259.08,224.57,276.34,192.14,276.34,148.75z M209.74,72.93H131.5c-25.57,0-48.6,12.74-62.65,32.19
				c3.49-0.87,7.13-1.34,10.88-1.34c5.78,0,10.46,4.68,10.46,10.46c0,5.77-4.68,10.46-10.46,10.46c-13.26,0-24.05,10.79-24.05,24.05
				s10.79,24.05,24.05,24.05c5.78,0,10.46,4.69,10.46,10.46c0,5.78-4.68,10.46-10.46,10.46c-3.75,0-7.39-0.47-10.88-1.34
				c14.051,19.45,37.08,32.19,62.65,32.19h78.24c-2.11-3.07-4.101-6.45-5.94-10.141c-8.86-17.72-13.74-41.04-13.74-65.68
				s4.88-47.96,13.74-65.68C205.64,79.38,207.63,76,209.74,72.93z M34.76,148.75c0-7.15-4.92-12.17-13.59-14.29v28.58
				C29.84,160.92,34.76,155.9,34.76,148.75z"/>
			<path d="M259.67,106.85c1.96,1.94,3.07,4.641,3.07,7.391s-1.11,5.45-3.07,7.39c-1.94,1.95-4.64,3.07-7.39,3.07
				s-5.45-1.12-7.391-3.07c-1.95-1.939-3.069-4.64-3.069-7.39s1.119-5.45,3.069-7.391c1.95-1.949,4.641-3.069,7.391-3.069
				S257.729,104.9,259.67,106.85z"/>
			<path d="M259.67,175.87c1.96,1.939,3.07,4.64,3.07,7.39s-1.11,5.45-3.07,7.391c-1.94,1.949-4.64,3.069-7.39,3.069
				s-5.45-1.12-7.391-3.069c-1.95-1.94-3.069-4.641-3.069-7.391s1.119-5.45,3.069-7.39c1.94-1.95,4.641-3.07,7.391-3.07
				S257.729,173.92,259.67,175.87z"/>
			<path d="M242.42,141.36c1.96,1.939,3.06,4.64,3.06,7.39s-1.1,5.45-3.06,7.39c-1.95,1.95-4.63,3.07-7.39,3.07
				c-2.75,0-5.45-1.12-7.4-3.07c-1.94-1.939-3.06-4.64-3.06-7.39s1.119-5.45,3.06-7.39c1.95-1.95,4.65-3.07,7.4-3.07
				C237.79,138.29,240.47,139.41,242.42,141.36z"/>
		</g>
		<g>
		</g>
	</g>
</g>
<g>
</g>
<g>
</g>
<g>
</g>
<g>
</g>
<g>
</g>
<g>
</g>
<g>
</g>
<g>
</g>
<g>
</g>
<g>
</g>
<g>
</g>
<g>
</g>
<g>
</g>
<g>
</g>
<g>
</g>
</svg>
